<?xml version="1.0" encoding="UTF-8"?>
<svg version="1.1" xmlns="http://www.w3.org/2000/svg" width="1254" height="1254">
<path d="M0 0 C413.82 0 827.64 0 1254 0 C1254 413.82 1254 827.64 1254 1254 C840.18 1254 426.36 1254 0 1254 C0 840.18 0 426.36 0 0 Z " fill="#E9EAEE" transform="translate(0,0)"/>
<path d="M0 0 C413.82 0 827.64 0 1254 0 C1254 413.82 1254 827.64 1254 1254 C840.18 1254 426.36 1254 0 1254 C0 840.18 0 426.36 0 0 Z M578 106 C576.25033936 106.1853833 576.25033936 106.1853833 574.46533203 106.37451172 C558.81844779 108.07279872 543.38371735 110.51654293 527.9375 113.5 C526.81433884 113.71515762 526.81433884 113.71515762 525.66848755 113.93466187 C516.94085676 115.62011117 508.41930601 117.59868854 499.90039062 120.15649414 C497.45864486 120.86661465 495.05645676 121.4528658 492.5625 121.9375 C487.80124652 122.93053611 483.25241542 124.53732463 478.65966797 126.11083984 C474.86322213 127.40428122 471.0703889 128.56010882 467.1875 129.5625 C462.87013229 130.69898356 458.84007636 132.18620827 454.72265625 133.90234375 C451.55468894 135.17953 448.34873634 136.30866148 445.125 137.4375 C428.60204588 143.30163366 412.8351504 150.91229014 397.23095703 158.86376953 C395.68399807 159.65163854 394.13537551 160.43624633 392.58544922 161.21826172 C373.13392701 171.0549059 354.76450783 182.38166135 337 195 C335.88383301 195.78938965 335.88383301 195.78938965 334.74511719 196.59472656 C325.56863854 203.09807369 316.57679488 209.71351939 308 217 C306.90923882 217.91712434 305.8180712 218.83376545 304.7265625 219.75 C298.76020962 224.7678207 292.83547598 229.83031195 287 235 C286.29665527 235.6185083 285.59331055 236.2370166 284.86865234 236.87426758 C278.48764229 242.54118376 272.39588681 248.44917589 266.3762207 254.4934082 C264.8072764 256.06774155 263.23301442 257.63661589 261.65820312 259.20507812 C256.22760413 264.63215318 250.98737264 270.15933057 246 276 C244.5867645 277.5448126 243.17059591 279.08695325 241.75 280.625 C236.16315006 286.8263089 231.07815645 293.38222634 226 300 C225.52691406 300.61085449 225.05382812 301.22170898 224.56640625 301.85107422 C215.79844142 313.18824283 207.81544227 324.99112526 200 337 C199.47374023 337.8034082 198.94748047 338.60681641 198.40527344 339.43457031 C190.77602661 351.11337292 183.91900462 363.11464646 177.37109375 375.4296875 C176.11529874 377.78385591 174.84281066 380.12785196 173.5625 382.46875 C154.23082068 418.01969587 141.73728723 455.87840937 131.78710938 494.92773438 C131.1142648 497.55399867 130.42880384 500.17625993 129.734375 502.796875 C127.76328593 510.31242409 126.32504203 517.68867026 125.39453125 525.40234375 C125 528 125 528 124 529 C123.72496673 530.70791336 123.50816769 532.42527592 123.31640625 534.14453125 C123.13174805 535.75038086 123.13174805 535.75038086 122.94335938 537.38867188 C122.81767578 538.51853516 122.69199219 539.64839844 122.5625 540.8125 C121.8303197 547.34788717 121.0619259 553.84700949 119.9375 560.328125 C119.15028029 564.89024171 118.66935617 569.31517592 118.4375 573.9375 C118.0958646 580.56801557 118.0958646 580.56801557 117.49369812 583.28149414 C116.90700157 586.5120878 116.86512862 589.5595118 116.85473633 592.84375 C116.85137772 593.51300507 116.8480191 594.18226013 116.84455872 594.87179565 C116.83507799 597.08121619 116.83310554 599.29056038 116.83203125 601.5 C116.82881135 603.05680369 116.82544675 604.61360708 116.82194519 606.17041016 C116.81595728 609.44206438 116.81410441 612.71369224 116.81469727 615.98535156 C116.81477785 619.29986102 116.80794693 622.6142303 116.79418945 625.92871094 C116.66530977 652.52561487 116.66530977 652.52561487 119 679 C119.15670166 680.20092285 119.31340332 681.4018457 119.47485352 682.63916016 C119.90315283 685.70461538 120.37607627 688.75782871 120.875 691.8125 C121.04572021 692.88653076 121.21644043 693.96056152 121.39233398 695.06713867 C121.92146325 698.3792215 122.46053618 701.6895869 123 705 C123.34784949 707.17705247 123.69550808 709.35413544 124.04296875 711.53125 C124.38196539 713.62513732 124.72177669 715.71889295 125.0625 717.8125 C125.21251465 718.74747314 125.3625293 719.68244629 125.51708984 720.64575195 C129.88282369 746.98755117 137.69545587 773.01384942 147 798 C147.41620605 799.12083984 147.83241211 800.24167969 148.26123047 801.39648438 C157.92320915 827.18600367 169.27140385 852.11625372 183 876 C183.47759766 876.83402344 183.95519531 877.66804687 184.44726562 878.52734375 C198.33218349 902.6145761 214.25378837 926.10331928 232.5078125 947.109375 C234.80530826 949.77418199 237.00096212 952.49413717 239.1875 955.25 C248.34926599 966.48212948 258.69136455 976.76526224 268.875 987.0625 C269.90089233 988.10796997 269.90089233 988.10796997 270.94750977 989.17456055 C271.58100342 989.80918213 272.21449707 990.44380371 272.8671875 991.09765625 C273.42519043 991.65976807 273.98319336 992.22187988 274.55810547 992.80102539 C275.94375794 994.21312149 275.94375794 994.21312149 278 994 C278.26167969 994.59683594 278.52335938 995.19367187 278.79296875 995.80859375 C280.07867148 998.14283074 281.27897096 999.3599093 283.3125 1001.0625 C284.02792969 1001.66707031 284.74335938 1002.27164063 285.48046875 1002.89453125 C286.31191406 1003.58933594 287.14335937 1004.28414062 288 1005 C289.44826172 1006.24330078 289.44826172 1006.24330078 290.92578125 1007.51171875 C298.22318322 1013.7714948 305.68897845 1019.78609855 313.29003906 1025.67236328 C314.93600379 1026.95031248 316.57420701 1028.23760012 318.2109375 1029.52734375 C353.86883962 1057.4907619 396.70197266 1083.84372496 439.90234375 1097.90234375 C442.45144294 1098.80561849 444.8422457 1099.80311969 447.30078125 1100.91796875 C461.90938242 1107.50855619 477.54670474 1111.88330392 493 1116 C494.18142578 1116.31614258 495.36285156 1116.63228516 496.58007812 1116.95800781 C515.59846244 1122.00024849 534.53979831 1126.00938412 554 1129 C555.37381859 1129.22452327 556.74753971 1129.44964518 558.12109375 1129.67578125 C580.19152951 1133.01824031 602.76798451 1133.3335627 625.04125977 1133.26074219 C628.96060396 1133.2499363 632.87949682 1133.26076856 636.79882812 1133.2734375 C657.13089091 1133.28588292 676.9796795 1131.8729236 697.0625 1128.75 C697.74746552 1128.64495148 698.43243103 1128.53990295 699.13815308 1128.43167114 C730.86909326 1124.05959615 730.86909326 1124.05959615 761.36328125 1115.0390625 C765.77409061 1113.30087689 770.38344467 1112.2251995 774.96679688 1111.03125 C779.91698414 1109.6999656 784.60346551 1108.03583822 789.34204102 1106.08398438 C794.22719535 1104.09169217 799.1821966 1102.28094806 804.125 1100.4375 C805.15753906 1100.05142578 806.19007813 1099.66535156 807.25390625 1099.26757812 C815.36882954 1096.23352719 815.36882954 1096.23352719 818.35766602 1095.12768555 C824.04903221 1093.01576152 829.50327002 1090.56925806 835 1088 C835.72348633 1087.66613281 836.44697266 1087.33226562 837.19238281 1086.98828125 C867.10292022 1073.1666304 895.51782651 1056.63157263 922 1037 C922.59828613 1036.56171875 923.19657227 1036.1234375 923.81298828 1035.671875 C932.41834318 1029.36777602 940.70675342 1022.83656757 948.7421875 1015.8203125 C951.74711963 1013.19921558 954.8294288 1010.68581336 957.9375 1008.1875 C961.75562825 1005.09582978 965.28298844 1001.87958189 968.66015625 998.3125 C970 997 970 997 972 996 C972 995.34 972 994.68 972 994 C972.66 994 973.32 994 974 994 C975.16526792 992.59482398 976.3259797 991.18564353 977.46459961 989.75878906 C979.08576042 987.90176212 980.80384943 986.3808321 982.69140625 984.796875 C987.02424128 981.05537595 990.9284155 977.01204314 994.8125 972.8125 C995.46669922 972.11447266 996.12089844 971.41644531 996.79492188 970.69726562 C1002.37347374 965.53837517 1002.37347374 965.53837517 1005 959 C1005.99 958.67 1006.98 958.34 1008 958 C1009.79173019 955.88810818 1011.4681772 953.77571209 1013.125 951.5625 C1016.37346676 947.31327264 1019.63442805 943.20449359 1023.3125 939.3125 C1061.98470392 897.11836323 1091.22267739 837.13958714 1108 783 C1108.46893145 781.58513223 1108.94043857 780.17111639 1109.4140625 778.7578125 C1113.43792506 766.6094683 1116.4688238 754.29512832 1119.34033203 741.82958984 C1119.90252305 739.41811912 1120.48624695 737.01463303 1121.08984375 734.61328125 C1123.30348872 725.74454625 1125.04242009 716.80343762 1126.6875 707.8125 C1126.90220947 706.66031982 1127.11691895 705.50813965 1127.33813477 704.32104492 C1128.61353184 697.16954754 1129.38082803 690.12505237 1129.76489258 682.86987305 C1130 680 1130 680 1131 677 C1133.42242484 659.01304956 1133.36622345 640.73483142 1133.3125 622.625 C1133.31034485 621.31095184 1133.3081897 619.99690369 1133.30596924 618.64303589 C1133.26005943 597.95773401 1132.77034102 577.51205401 1130 557 C1129.85434601 555.9169458 1129.85434601 555.9169458 1129.70574951 554.81201172 C1125.37583657 523.05759963 1119.0803751 491.44812475 1108.99121094 460.99853516 C1107.99622234 457.98857211 1107.03100616 454.97028335 1106.0703125 451.94921875 C1099.78729142 432.39887601 1092.5784521 413.18804928 1083 395 C1082.05115973 393.10841806 1081.11389382 391.21136616 1080.17724609 389.3137207 C1069.70593178 368.14120875 1058.49857246 347.42294594 1045 328 C1044.56751953 327.37593262 1044.13503906 326.75186523 1043.68945312 326.10888672 C1033.26760108 311.10156274 1022.55443025 296.47608081 1010.50439453 282.73095703 C1008.97327276 280.96924763 1007.46623328 279.18943646 1005.96484375 277.40234375 C1000.34996098 270.7331459 994.56393648 264.42140365 988.328125 258.328125 C986.52286254 256.52286254 984.88985821 254.74798706 983.3125 252.75 C980.83398643 249.80257845 978.15284374 247.46444955 975.2265625 244.9765625 C972.76553431 242.79186028 970.4849599 240.48080809 968.1875 238.125 C963.92613385 233.81142722 959.43583307 229.98184661 954.69921875 226.203125 C952.14142028 224.11542842 949.72791649 221.93703361 947.3125 219.6875 C940.61108465 213.59818243 933.2992193 208.34037545 926 203 C924.90776123 202.1944165 924.90776123 202.1944165 923.79345703 201.37255859 C913.11671808 193.50019002 902.25325195 186.02500802 891 179 C890.3915625 178.61924316 889.783125 178.23848633 889.15625 177.84619141 C870.48058368 166.23021364 850.94924705 156.22623122 831 147 C830.06406006 146.56486084 829.12812012 146.12972168 828.16381836 145.68139648 C822.82055026 143.2197669 817.46959463 140.9372582 811.9375 138.9375 C810.65449536 138.46868459 809.37194971 137.9986113 808.08984375 137.52734375 C807.42984375 137.28491943 806.76984375 137.04249512 806.08984375 136.79272461 C803.85299163 135.94423643 801.64569141 135.03598453 799.43359375 134.125 C792.77430607 131.44820883 785.95517428 129.25458431 779.125 127.0625 C778.43693268 126.84145599 777.74886536 126.62041199 777.03994751 126.39266968 C765.78626701 122.79016966 754.54636352 119.52796971 743 117 C741.76942871 116.72559082 740.53885742 116.45118164 739.27099609 116.16845703 C721.67873945 112.26298875 704.2310112 108.99155367 686.265625 107.32373047 C682.88772117 106.98886949 679.52449634 106.58071397 676.15625 106.16015625 C643.82975513 102.31192009 610.34880768 102.41445599 578 106 Z " fill="#FEFDFD" transform="translate(0,0)"/>
<path d="M0 0 C1.88354757 -0.00600632 3.76709271 -0.01281655 5.65063477 -0.02035522 C10.70263433 -0.03780639 15.7545659 -0.04270157 20.8065927 -0.0439868 C23.97953647 -0.04542066 27.15246362 -0.04971319 30.32540321 -0.05498123 C41.44171853 -0.07341075 52.55798631 -0.08166057 63.67431641 -0.08007812 C73.96147832 -0.0788779 84.24843005 -0.09997544 94.53553885 -0.13156545 C103.4322351 -0.1578915 112.32886336 -0.16843867 121.22559816 -0.16716731 C126.51070073 -0.16666255 131.79561594 -0.17207205 137.08067894 -0.19352341 C158.48388953 -0.27437036 179.21570604 -0.31899071 200.22583008 4.29052734 C202.22653867 4.70516171 204.22749396 5.11860732 206.22868347 5.53091431 C224.48156025 9.31798969 242.66165351 14.57839703 259.21411133 23.29833984 C260.91132857 24.13541398 262.64931682 24.88905876 264.39379883 25.62255859 C297.24638261 39.58979872 328.30862022 64.03234429 351.22583008 91.29052734 C351.69666016 91.84369629 352.16749023 92.39686523 352.65258789 92.96679688 C372.35410823 116.20019026 389.43015905 142.45833568 399.88793945 171.15380859 C401.20722144 174.72526855 402.62525584 178.19841316 404.22583008 181.65380859 C406.41416984 186.51099521 407.88431968 191.47221251 409.28833008 196.60302734 C409.54654541 197.53526123 409.80476074 198.46749512 410.07080078 199.42797852 C410.57465727 201.25495609 411.07537475 203.08280312 411.57250977 204.91162109 C412.08374754 206.7731685 412.62225463 208.62723161 413.17114258 210.47802734 C416.4024423 221.90662425 419.72001714 237.42813982 418.22583008 249.29052734 C416.64379883 251.52880859 416.64379883 251.52880859 414.41333008 253.60302734 C413.58575195 254.37646484 412.75817383 255.14990234 411.90551758 255.94677734 C408.41189647 259.00242263 404.85002187 261.95367391 401.22583008 264.85302734 C398.52572453 267.0468631 395.89769254 269.29759112 393.27856445 271.5859375 C368.12821291 293.51134217 339.53164042 311.487159 310.22583008 327.29052734 C309.23244629 327.8295166 309.23244629 327.8295166 308.21899414 328.37939453 C296.15387698 334.92144956 284.07731713 341.41883592 271.22583008 346.29052734 C269.85024908 346.8294112 268.47530666 347.36992652 267.10083008 347.91162109 C258.88123104 351.1442755 250.63979223 354.25589677 242.30395508 357.17724609 C239.64991943 358.13714477 237.07027213 359.18303592 234.47583008 360.29052734 C229.20148539 362.44544906 223.75691403 363.89890496 218.26000977 365.36474609 C213.78164345 366.56111827 209.35772649 367.86787533 204.93676758 369.26318359 C198.57058005 371.2355967 192.17323236 372.81018896 185.66333008 374.22802734 C184.51002197 374.48108643 183.35671387 374.73414551 182.16845703 374.99487305 C165.36419026 378.62132576 148.43886755 381.65638122 131.41333008 384.04052734 C130.59759521 384.15614014 129.78186035 384.27175293 128.94140625 384.39086914 C112.88099156 386.52243884 96.79680284 386.47835901 80.62524414 386.47583008 C76.65869415 386.47571001 72.6923346 386.49614288 68.72583008 386.51513672 C45.61976519 386.56737897 22.50376014 385.75341466 -0.33666992 382.04052734 C-1.34579437 381.88145905 -1.34579437 381.88145905 -2.37530518 381.71917725 C-37.9246753 376.11437482 -74.22037144 368.03934876 -107.27416992 353.47802734 C-111.57744804 351.61060115 -115.87241268 349.85830263 -120.28915405 348.27166748 C-129.53900309 344.93661528 -138.33599862 340.88378743 -147.14916992 336.54052734 C-147.86850708 336.18848236 -148.58784424 335.83643738 -149.32897949 335.47372437 C-184.62134323 318.19649479 -217.11242586 296.81618107 -247.77416992 272.29052734 C-249.20889648 271.14970703 -249.20889648 271.14970703 -250.67260742 269.98583984 C-256.21481478 265.52348951 -261.52345958 260.86791249 -266.71606445 256.00732422 C-268.78167294 254.07932887 -270.67879335 252.34670589 -273.12182617 250.90771484 C-274.77416992 249.29052734 -274.77416992 249.29052734 -275.10620117 246.03662109 C-274.78226054 242.38180854 -274.23428642 238.93876031 -273.46166992 235.35302734 C-273.1805271 234.0264571 -272.90061889 232.69962472 -272.62182617 231.37255859 C-272.47890137 230.69660645 -272.33597656 230.0206543 -272.1887207 229.32421875 C-271.52637728 226.07491325 -270.97356208 222.80635706 -270.39916992 219.54052734 C-267.6326054 204.38057735 -264.09096505 188.11303401 -256.82495117 174.45068359 C-255.53102484 171.79067891 -254.54296292 169.06750491 -253.52416992 166.29052734 C-243.12644079 138.98082914 -225.83057535 113.40831189 -205.77416992 92.29052734 C-204.70525675 91.046007 -203.64242169 89.7962321 -202.58666992 88.54052734 C-193.55208721 78.18172684 -183.60315085 68.73747034 -172.77416992 60.29052734 C-172.06131836 59.68724609 -171.3484668 59.08396484 -170.61401367 58.46240234 C-151.13602972 42.11051458 -127.58436278 28.23257755 -103.77416992 19.29052734 C-102.70199219 18.88592285 -102.70199219 18.88592285 -101.6081543 18.47314453 C-85.0097785 12.27117452 -68.07488616 7.2990833 -50.64916992 4.04052734 C-49.45445068 3.81393433 -49.45445068 3.81393433 -48.2355957 3.58276367 C-32.25542762 0.78141524 -16.19093496 -0.01053461 0 0 Z " fill="#ACB2BF" transform="translate(552.774169921875,746.70947265625)"/>
<path d="M0 0 C0.78200775 -0.00067474 1.5640155 -0.00134949 2.36972046 -0.00204468 C13.0458532 0.01258484 23.36176613 0.27803385 33.79931641 2.73632812 C36.39299859 3.34173164 38.99762906 3.88078219 41.60546875 4.421875 C43.57088842 4.84105875 45.53574199 5.26290612 47.5 5.6875 C48.3969458 5.88045654 49.2938916 6.07341309 50.21801758 6.2722168 C56.43828658 7.69093552 62.1298751 9.77587248 68 12.25 C69.64278859 12.88525509 71.28602058 13.51936473 72.9296875 14.15234375 C94.23727383 22.69449941 112.84448138 35.19960143 130 50.25 C131.29051446 51.31389917 132.58195049 52.37668333 133.875 53.4375 C136.93514004 56.07012047 139.53197251 59.00369479 142.13671875 62.08203125 C143.396246 63.54751893 144.69219127 64.98235711 146.01953125 66.38671875 C182.94179755 105.57088965 196.77364211 158.79493336 195.3273468 211.38023376 C194.9456576 221.87369482 193.29716459 232.01978383 191 242.25 C190.76152344 243.47203125 190.52304687 244.6940625 190.27734375 245.953125 C189.63092276 249.0962019 188.86273784 252.15948134 188 255.25 C187.82839355 255.86842773 187.65678711 256.48685547 187.47998047 257.12402344 C180.13546864 282.86396094 166.81590069 308.21119794 149 328.25 C148.30777344 329.05050781 147.61554688 329.85101562 146.90234375 330.67578125 C124.36499048 356.32173497 97.33571143 375.70066235 65 387.25 C64.34427002 387.49032959 63.68854004 387.73065918 63.01293945 387.97827148 C22.04132179 402.85507621 -28.84686919 405.10405293 -69.4140625 387.18359375 C-70.68061242 386.54022676 -71.93811448 385.87857759 -73.18359375 385.1953125 C-75.2209287 384.13502205 -77.28406539 383.36060097 -79.4375 382.5625 C-98.75060581 374.93190077 -115.54696252 362.92471174 -131 349.25 C-131.87140625 348.50105469 -132.7428125 347.75210937 -133.640625 346.98046875 C-155.60935897 327.80963958 -171.79582865 303.04824113 -183 276.25 C-183.43022461 275.24428955 -183.43022461 275.24428955 -183.86914062 274.21826172 C-204.51487971 225.20149882 -202.10467875 169.52323882 -182.39672852 120.76733398 C-175.43166578 104.45128667 -166.11357127 89.06315876 -155 75.25 C-154.54915039 74.68635742 -154.09830078 74.12271484 -153.63378906 73.54199219 C-144.21362052 61.86205291 -133.85474514 51.49070724 -122 42.25 C-121.1234375 41.54488281 -120.246875 40.83976562 -119.34375 40.11328125 C-113.12698197 35.24988267 -106.63274012 31.06714105 -99.875 27 C-98.64052124 26.25689575 -98.64052124 26.25689575 -97.38110352 25.4987793 C-87.23455962 19.48926864 -76.88591844 14.28709855 -65.53515625 11 C-63.18750009 10.30546998 -60.87763928 9.54518201 -58.5625 8.75 C-39.31258037 2.31100249 -20.19789786 0.0156975 0 0 Z " fill="#ACB2BF" transform="translate(627,321.75)"/>
</svg>
